<svg xmlns="http://www.w3.org/2000/svg" width="100" height="100" viewBox="0 0 50 50">
  <path d="M25 2C12.317 2 2 12.317 2 25s10.317 23 23 23 23-10.317 23-23S37.683 2 25 2zM8.043 12.664l7.004 11.412C15.515 18.994 19.798 15 25 15h18.463c.35.646.662 1.316.945 2H30.975C33.413 18.825 35 21.727 35 25a9.926 9.926 0 0 1-1.303 4.916c-.007.014-.005.029-.013.043l-9.147 16.018a21.434 21.434 0 0 1-2.209-.166l6.649-11.64A9.938 9.938 0 0 1 25 35c-3.559 0-6.681-1.876-8.453-4.684-.023-.029-.05-.052-.07-.084L6.832 14.516c.371-.641.776-1.257 1.211-1.852zM25 17a8 8 0 0 0-8 8 8 8 0 0 0 8 8 8 8 0 0 0 8-8 8 8 0 0 0-8-8z"/>
</svg>
